<svg xmlns="http://www.w3.org/2000/svg" width="200" height="200" fill="none" viewBox="0 0 200 200"><g clip-path="url(#a)"><path fill="#E20612" d="M99.996 200C155.223 200 200 155.232 200 100.022 200 44.785 155.223 0 99.996 0 44.759 0 0 44.785 0 100.022 0 155.232 44.759 200 99.996 200Z"/><path fill="#fff" d="M67.69 55.343c-18.865-.732-23.972 26.07-25.136 30.647-.062.327-.22.441-.22.441-5.821-.793-9.04-1.984-9.04-1.984l-1.323 3.748c3.924 1.861 9.701 2.426 9.701 2.426-1.129 7.205-6.835 20.725-6.835 20.725s-5.062-1.543-11.465-1.543c-8.326 0-11.254 3.916-11.466 6.394-.546 6.421 7.594 9.481 13.23 9.481 10.997 0 16.757-5.953 16.757-5.953s30.788 11.686 63.059 11.686c42.237 0 77.832-11.245 77.832-11.245l-1.102-3.969s-25.797 8.987-75.186 8.379c-34.07-.415-60.194-10.363-60.194-10.363s.988-1.764 1.544-2.867c3.413-6.958 7.496-20.946 7.496-20.946s23.372-6.544 23.372-25.136c0-5.882-5.618-9.683-11.024-9.921Zm.882 5.291c3.624 0 4.93 2.867 4.63 5.513-1.764 15.53-17.198 19.182-17.198 19.182s3.73-24.695 12.568-24.695Zm37.483 12.789c-3.925 0-6.615 1.614-6.615 5.291 0 3.722 3.14 4.63 6.615 4.63 3.483 0 6.835-1.499 6.835-5.291 0-3.801-3.996-4.63-6.835-4.63Zm52.255 13.45c-11.271 0-17.374 9.718-17.639 15.433-.053 1.244-.22 1.323-.22 1.323-.265.3-4.146 4.851-9.04 4.851-3.916 0-4.631-3.193-4.631-5.292 0-2.275 1.941-11.244 7.277-11.244 2.901 0 4.63 2.425 4.63 2.425l1.543-5.071s-2.434-1.967-7.496-1.985c-10.901-.008-18.257 8.061-18.521 15.434-.053 1.103-.239 1.473-.221 1.544-.361.441-2.91 3.528-6.394 3.528-2.381 0-2.425-1.826-2.425-2.646 0-1.12 4.63-17.198 4.63-17.198l-12.347.22-4.19 15.655s-6.879 4.842-16.316 5.512c-4.868.335-6.615-2.672-6.615-4.41v-.661c.01 0 2.047.22 3.528.22 1.165 0 15.655-1.12 15.655-9.922 0-5.035-5.106-6.835-11.465-6.835-11.757 0-20.065 7.224-20.065 15.875 0 7.894 6.738 11.245 15.434 11.245 9.87 0 19.624-5.953 19.624-5.953s.59 5.953 8.378 5.953c8.035 0 14.332-5.953 14.332-5.953s3.475 5.733 11.465 5.733c8.167 0 14.332-6.615 14.332-6.615s2.276 6.174 10.363 6.174c6.324 0 9.701-3.969 9.701-3.969s1.764 3.969 7.277 3.969c6.729 0 11.685-4.63 11.685-4.63l-1.102-3.969s-2.558 1.984-4.41 1.984c-1.402 0-2.205-1.138-2.205-2.425 0-2.893 4.631-17.198 4.631-17.198l-11.245.22-.441 1.764s-1.676-3.087-7.497-3.087Zm-79.816 4.41c1.658.096 2.919 1.216 2.866 2.424-.273 7.832-9.922 6.615-9.922 6.615s1.42-9.384 7.056-9.04Zm82.021.22c2.32 0 3.528 1.843 3.528 3.307 0 .3-1.314 13.67-7.938 13.67-3.034 0-3.087-3.448-3.087-4.41 0-2.548 2.002-12.567 7.497-12.567ZM21.167 114.654c.576-.058 1.043-.035 1.543 0 4.825.264 9.04 1.984 9.04 1.984s-4.965 3.845-9.04 3.969c-3.113.097-5.071-1.932-5.071-3.087 0-1.918 1.8-2.692 3.528-2.866Z"/></g><defs><clipPath id="a"><path fill="#fff" d="M0 0h200v200H0z"/></clipPath></defs></svg>